<svg version="1.2" xmlns="http://www.w3.org/2000/svg" viewBox="0 0 992 485" width="525" height="256"><style></style><path fill="#ffffff" d="m362.9 365.6q-1.1 6.4-11.8 6.4h-82.3q-13.9 0-16.2-2.1-1.8-2.2-6.4-17.7l-47.7-166.8h-50.8l-13.7 75.4q-11.4 62.6-7.8 78.1 4.7 20.8 37.9 20.8 12.8 0 9.7-0.5 6.2 1 5.3 5.9-1.2 6.9-9.8 6.9h-160.3q-8.6 0-7.3-6.9 0.9-4.9 7.5-5.9-3.3 0.5 10 0.5 32.6 0 44.4-20.8 9.3-15.5 20.7-78.1l27.1-149.1q11.3-62 7.8-78.1-4.3-20.3-36.9-20.3-12.3 0-10.2 0-6.3-0.5-5.3-5.9 1.1-6.4 9.7-6.4h161.4q132 0 117.9 89.3-5.9 38.5-39.2 65.7-28.9 23.6-65.1 28.9l26.5 97.8q9.7 35.3 22.2 51.9 16.1 23 44.1 24.6 5.9 0 11.8 0 7.8 1 6.8 6.4zm-58-274.2q4.4-33.2-12.7-54-18.3-22.5-55.8-22.5-37.9 0-48 8.6-10.1 8.5-15.5 26.2-1.5 5.3-6 29.9l-16.4 90.3q26.2 0 65.9-0.5 33.7-0.5 58.8-23.5 25.5-23 29.7-54.5zm249 160.3q-11.3 56.7-48.1 91.4-36.7 34.2-85.9 34.2-48.6 0-73.6-36.3-24.3-36.9-14.3-91.4 10.3-56.7 48.8-89.3 36.1-31 86.6-32 48.3-1.1 72.7 35.2 24.3 36.4 13.8 88.2zm-50.6-3.7q19.6-107.5-38.7-107.5-60.4 0-80.6 111.2-20.6 112.8 38.2 112.8 59.9 0 81.1-116.5zm250.2-85.5q-2.2 12.3-13.8 22.9-11.4 10.2-21.8 8.6-13-2.1-18.8-17.1-5.2-15.5-12.3-17.6-7.1-2.2-23 11.7-0.7 0.5-21.6 21.4l-16.4 90.3q-9.1 50.3-4.6 63.6 4.5 13.4 30.2 13.4 13.9 0 16.9 1.1 3.5 1 2.8 4.8-1.1 6.4-8.6 6.4h-145.4q-7 0-5.8-6.4 1.1-5.9 11.2-5.9h5.9q23 0 31.3-13.4 8.9-13.3 18-63.6l5.8-32q8.5-46.5 6.4-58.3-2.8-17.1-26.3-17.1-15.5 0-11.3 0.5-8.4-1-7.5-5.9 1.2-6.9 8.7-6.9 43.2-5.3 70.4-19.8 5.3-2.7 15.7-9.6 6-3.7 8.1-3.7 5.9 0 3.9 11.2l-6.8 37.4q18.9-16 38.3-31.5 26.1-19.8 43.1-19.3 33.6 0.6 27.3 34.8zm237-25.7q-0.9 4.8-8.4 4.8-16 0-26.9 9.6-10.3 9.7-35.6 49.2l-137.6 215.4q-44.1 69-84.7 69-38.5 0-32.7-32.1 2.2-11.7 11.2-20.3 9.1-8.5 20.8-8.5 16.1 0 22.5 17.6 6.9 17.6 9.6 17.6 18.7 0 78.9-104.7l-43.8-170.6q-7.5-29.4-12.7-35.8-4.7-6.4-18.6-6.4-13.9 0-12.9-5.3 1.1-6.4 13.4-6.4h109.1q10.6 0 9.5 6.4-1 5.3-13.3 5.3-28.3 0-31.7 18.7l36.1 142.2 84.3-134.2q4.9-26.7-25.6-26.7-8 0-7.2-4.8 1.3-6.9 13.6-6.9h74.3q9.6 0 8.4 6.9z"/></svg>